<?xml version="1.0" standalone="no"?>
<!DOCTYPE svg PUBLIC "-//W3C//DTD SVG 20010904//EN"
 "http://www.w3.org/TR/2001/REC-SVG-20010904/DTD/svg10.dtd">
<svg version="1.0" xmlns="http://www.w3.org/2000/svg"
 width="512.000000pt" height="512.000000pt" viewBox="0 0 512.000000 512.000000"
 preserveAspectRatio="xMidYMid meet">

<g transform="translate(0.000000,512.000000) scale(0.100000,-0.100000)"
fill="#000000" stroke="none">
<path d="M2665 5105 c-184 -28 -362 -99 -521 -205 -101 -68 -256 -223 -324
-324 -212 -317 -272 -690 -170 -1056 23 -82 94 -238 142 -313 17 -26 29 -49
27 -51 -2 -1 -402 -232 -887 -512 -602 -347 -890 -518 -904 -537 -33 -46 -35
-105 -5 -163 48 -94 153 -229 266 -343 l114 -114 14 -71 c66 -319 353 -551
836 -675 137 -36 381 -77 542 -91 66 -6 139 -13 163 -16 l42 -5 0 -165 0 -164
-90 0 c-71 0 -99 -4 -130 -20 -45 -23 -80 -80 -80 -130 0 -50 35 -107 80 -130
38 -19 58 -20 670 -20 612 0 632 1 670 20 45 23 80 80 80 130 0 50 -35 107
-80 130 -31 16 -59 20 -130 20 l-90 0 2 196 3 195 71 28 c187 73 336 173 494
331 217 216 339 439 402 733 17 82 22 136 22 277 0 157 -2 186 -26 280 -45
180 -121 333 -231 470 l-44 54 35 28 35 28 669 0 c651 0 670 1 708 20 27 14
47 34 61 62 20 38 21 53 15 145 -29 479 -320 911 -761 1131 -87 43 -230 93
-319 112 -54 11 -57 14 -83 63 -79 157 -248 347 -397 447 -100 67 -259 143
-356 170 -173 48 -371 61 -535 35z m418 -314 c336 -88 596 -349 689 -691 33
-122 33 -338 0 -460 -93 -342 -349 -599 -689 -692 -117 -32 -345 -32 -463 0
-342 93 -599 348 -692 689 -31 112 -31 354 0 466 100 364 387 631 757 703 98
19 297 12 398 -15z m1111 -1141 c38 -113 71 -260 82 -364 l7 -66 -181 0 -181
0 54 113 c74 154 123 349 126 500 l1 42 28 -60 c16 -33 45 -107 64 -165z m366
97 c112 -131 198 -296 230 -437 6 -30 14 -63 17 -72 4 -16 -6 -18 -110 -18
l-114 0 -6 76 c-13 145 -78 415 -134 552 -12 31 53 -26 117 -101z m-2411 -909
c156 -107 354 -182 551 -208 47 -7 86 -13 88 -15 7 -7 -41 -212 -69 -292 -138
-394 -465 -714 -855 -836 -155 -49 -238 -61 -409 -61 -290 -1 -523 69 -768
231 -77 50 -317 281 -317 304 0 8 230 146 512 309 282 162 654 377 827 477
l315 182 26 -20 c14 -11 58 -43 99 -71z m1253 -217 c192 -240 245 -546 151
-871 -108 -373 -410 -675 -783 -783 -140 -41 -258 -51 -510 -44 -469 14 -799
59 -1070 148 -96 32 -228 94 -265 124 l-20 17 20 -7 c58 -19 210 -55 280 -66
116 -19 407 -17 522 4 526 98 958 418 1191 882 84 167 138 342 165 536 l12 82
88 23 c49 13 96 28 105 34 30 17 46 6 114 -79z m-802 -2156 l0 -165 -150 0
-150 0 0 160 0 159 133 4 c72 1 140 4 150 5 16 2 17 -12 17 -163z"/>
<path d="M3128 4139 c-43 -22 -78 -81 -78 -129 0 -50 35 -107 80 -130 21 -11
53 -20 70 -20 50 0 107 35 130 80 11 21 20 53 20 70 0 50 -35 107 -80 130 -49
25 -94 25 -142 -1z"/>
</g>
</svg>
